<svg width="24" height="24" viewBox="0 0 24 24" fill="none" xmlns="http://www.w3.org/2000/svg">
<g clip-path="url(#clip0_821_733)">
<path fill-rule="evenodd" clip-rule="evenodd" d="M17.005 1.25309C17.3102 -0.145767 19.3022 -0.154338 19.6228 1.24109L19.6365 1.30623L19.6656 1.42966C19.8353 2.15332 20.2141 2.81109 20.7548 3.32105C21.2956 3.83101 21.9744 4.17065 22.7068 4.29766C24.1673 4.55309 24.1673 6.64966 22.7068 6.90338C21.97 7.03087 21.2875 7.3735 20.7451 7.88813C20.2027 8.40275 19.8247 9.06636 19.6588 9.79538L19.6228 9.95995C19.3039 11.3571 17.3102 11.3485 17.005 9.94795L16.9725 9.80738C16.8119 9.07671 16.4377 8.41031 15.8974 7.8929C15.3571 7.37548 14.6751 7.03045 13.9382 6.90166C12.481 6.64795 12.481 4.55309 13.9382 4.30109C14.673 4.17295 15.3533 3.82981 15.8931 3.31504C16.4329 2.80027 16.8079 2.13699 16.9708 1.40909L16.993 1.30623L17.005 1.25309ZM1.89532 0.29309C1.67523 0.292865 1.45726 0.33602 1.25386 0.420089C1.05045 0.504157 0.865618 0.627491 0.709911 0.783038C0.554205 0.938585 0.430682 1.1233 0.346406 1.32661C0.262129 1.52993 0.218751 1.74786 0.218751 1.96795V9.08566C0.218751 10.0114 0.969608 10.7605 1.89532 10.7605H9.01475C9.94047 10.7605 10.6896 10.0114 10.6896 9.08566V1.96795C10.6898 1.74786 10.6467 1.52988 10.5626 1.32648C10.4785 1.12308 10.3552 0.938243 10.1997 0.782536C10.0441 0.62683 9.8594 0.503307 9.65609 0.419031C9.45277 0.334754 9.23484 0.291376 9.01475 0.291376L1.89532 0.29309ZM0.218751 14.9845C0.218751 14.0588 0.969608 13.3097 1.89532 13.3097H9.01475C9.94047 13.3097 10.6896 14.0588 10.6896 14.9845V22.1039C10.6896 23.0297 9.94047 23.7805 9.01475 23.7805H1.89532C1.67509 23.7807 1.45697 23.7375 1.25346 23.6534C1.04995 23.5692 0.865033 23.4457 0.709304 23.29C0.553575 23.1342 0.430089 22.9493 0.345913 22.7458C0.261737 22.5423 0.218525 22.3242 0.218751 22.1039V14.9845ZM13.2388 14.9845C13.2388 14.0588 13.9879 13.3097 14.9136 13.3097H22.033C22.9588 13.3097 23.7096 14.0588 23.7096 14.9845V22.1039C23.7096 23.0297 22.9588 23.7805 22.033 23.7805H14.9153C14.6952 23.7805 14.4773 23.7371 14.274 23.6529C14.0707 23.5686 13.886 23.4451 13.7304 23.2894C13.5749 23.1337 13.4515 22.9488 13.3675 22.7454C13.2834 22.542 13.2402 22.324 13.2405 22.1039L13.2388 14.9845Z" fill="white"/>
</g>
<defs>
<clipPath id="clip0_821_733">
<rect width="24" height="24" fill="white"/>
</clipPath>
</defs>
</svg>
