<svg width="24" height="24" viewBox="0 0 24 24" fill="none" xmlns="http://www.w3.org/2000/svg">
<g clip-path="url(#clip0_554_601)">
<path fill-rule="evenodd" clip-rule="evenodd" d="M17.0031 1.25309C17.3082 -0.145767 19.3002 -0.154339 19.6208 1.24109L19.6345 1.30623L19.6637 1.42966C19.8333 2.15332 20.2121 2.81109 20.7529 3.32105C21.2936 3.83101 21.9724 4.17065 22.7048 4.29766C24.1654 4.55309 24.1654 6.64966 22.7048 6.90338C21.9681 7.03087 21.2855 7.3735 20.7432 7.88813C20.2008 8.40275 19.8228 9.06636 19.6568 9.79538L19.6208 9.95995C19.3019 11.3571 17.3082 11.3485 17.0031 9.94795L16.9705 9.80738C16.81 9.07671 16.4357 8.41031 15.8954 7.8929C15.3551 7.37548 14.6732 7.03045 13.9362 6.90166C12.4791 6.64795 12.4791 4.55309 13.9362 4.30109C14.671 4.17295 15.3513 3.82981 15.8911 3.31504C16.4309 2.80027 16.806 2.13699 16.9688 1.40909L16.9911 1.30623L17.0031 1.25309ZM1.89337 0.29309C1.67328 0.292865 1.4553 0.33602 1.2519 0.420089C1.0485 0.504157 0.863665 0.627491 0.707958 0.783038C0.552251 0.938585 0.428729 1.1233 0.344452 1.32661C0.260176 1.52993 0.216798 1.74786 0.216798 1.96795V9.08566C0.216798 10.0114 0.967655 10.7605 1.89337 10.7605H9.0128C9.93851 10.7605 10.6877 10.0114 10.6877 9.08566V1.96795C10.6879 1.74786 10.6447 1.52988 10.5607 1.32648C10.4766 1.12308 10.3533 0.938242 10.1977 0.782536C10.0422 0.62683 9.85745 0.503307 9.65413 0.419031C9.45082 0.334754 9.23289 0.291376 9.0128 0.291376L1.89337 0.29309ZM0.216798 14.9845C0.216798 14.0588 0.967655 13.3097 1.89337 13.3097H9.0128C9.93851 13.3097 10.6877 14.0588 10.6877 14.9845V22.1039C10.6877 23.0297 9.93851 23.7805 9.0128 23.7805H1.89337C1.67314 23.7807 1.45502 23.7375 1.25151 23.6534C1.04799 23.5692 0.86308 23.4457 0.707351 23.29C0.551622 23.1342 0.428136 22.9493 0.34396 22.7458C0.259784 22.5423 0.216572 22.3242 0.216798 22.1039V14.9845ZM13.2368 14.9845C13.2368 14.0588 13.9859 13.3097 14.9117 13.3097H22.0311C22.9568 13.3097 23.7077 14.0588 23.7077 14.9845V22.1039C23.7077 23.0297 22.9568 23.7805 22.0311 23.7805H14.9134C14.6933 23.7805 14.4753 23.7371 14.272 23.6529C14.0687 23.5686 13.884 23.4451 13.7285 23.2894C13.5729 23.1337 13.4496 22.9488 13.3655 22.7454C13.2814 22.542 13.2383 22.324 13.2385 22.1039L13.2368 14.9845Z" fill="#5B4F46"/>
</g>
<defs>
<clipPath id="clip0_554_601">
<rect width="24" height="24" fill="white"/>
</clipPath>
</defs>
</svg>
