<svg width="30" height="30" viewBox="0 0 30 30" fill="none" xmlns="http://www.w3.org/2000/svg">
<path fill-rule="evenodd" clip-rule="evenodd" d="M14.2598 3.95986C14.4823 3.82204 14.7388 3.74902 15.0005 3.74902C15.2621 3.74902 15.5186 3.82204 15.7411 3.95986L25.5848 10.0536C25.8805 10.2359 26.0981 10.5212 26.196 10.8545C26.2938 11.1877 26.2648 11.5454 26.1146 11.8586C25.9644 12.1718 25.7037 12.4183 25.3826 12.5506C25.0614 12.683 24.7027 12.6919 24.3755 12.5755V23.4374H24.8442C25.2172 23.4374 25.5749 23.5855 25.8386 23.8492C26.1023 24.113 26.2505 24.4706 26.2505 24.8436C26.2505 25.2166 26.1023 25.5743 25.8386 25.838C25.5749 26.1017 25.2172 26.2499 24.8442 26.2499H5.15671C4.78375 26.2499 4.42607 26.1017 4.16234 25.838C3.89862 25.5743 3.75046 25.2166 3.75046 24.8436C3.75046 24.4706 3.89862 24.113 4.16234 23.8492C4.42607 23.5855 4.78375 23.4374 5.15671 23.4374H5.62546V12.5755C5.29822 12.6919 4.93948 12.683 4.61837 12.5506C4.29726 12.4183 4.03649 12.1718 3.88631 11.8586C3.73613 11.5454 3.70715 11.1877 3.80497 10.8545C3.90278 10.5212 4.12047 10.2359 4.41609 10.0536L14.2598 3.95986ZM8.43796 16.4061C8.43796 16.0331 8.58612 15.6755 8.84984 15.4117C9.11357 15.148 9.47125 14.9999 9.84421 14.9999C10.2172 14.9999 10.5749 15.148 10.8386 15.4117C11.1023 15.6755 11.2505 16.0331 11.2505 16.4061V22.0311C11.2505 22.4041 11.1023 22.7618 10.8386 23.0255C10.5749 23.2892 10.2172 23.4374 9.84421 23.4374C9.47125 23.4374 9.11357 23.2892 8.84984 23.0255C8.58612 22.7618 8.43796 22.4041 8.43796 22.0311V16.4061ZM15.0005 14.9999C14.6275 14.9999 14.2698 15.148 14.0061 15.4117C13.7424 15.6755 13.5942 16.0331 13.5942 16.4061V22.0311C13.5942 22.4041 13.7424 22.7618 14.0061 23.0255C14.2698 23.2892 14.6275 23.4374 15.0005 23.4374C15.3734 23.4374 15.7311 23.2892 15.9948 23.0255C16.2586 22.7618 16.4067 22.4041 16.4067 22.0311V16.4061C16.4067 16.0331 16.2586 15.6755 15.9948 15.4117C15.7311 15.148 15.3734 14.9999 15.0005 14.9999ZM18.7505 16.4061C18.7505 16.0331 18.8986 15.6755 19.1623 15.4117C19.4261 15.148 19.7838 14.9999 20.1567 14.9999C20.5297 14.9999 20.8874 15.148 21.1511 15.4117C21.4148 15.6755 21.563 16.0331 21.563 16.4061V22.0311C21.563 22.4041 21.4148 22.7618 21.1511 23.0255C20.8874 23.2892 20.5297 23.4374 20.1567 23.4374C19.7838 23.4374 19.4261 23.2892 19.1623 23.0255C18.8986 22.7618 18.7505 22.4041 18.7505 22.0311V16.4061ZM15.0005 11.2499C15.4977 11.2499 15.9747 11.0523 16.3263 10.7007C16.6779 10.3491 16.8755 9.87214 16.8755 9.37486C16.8755 8.87758 16.6779 8.40067 16.3263 8.04904C15.9747 7.6974 15.4977 7.49986 15.0005 7.49986C14.5032 7.49986 14.0263 7.6974 13.6746 8.04904C13.323 8.40067 13.1255 8.87758 13.1255 9.37486C13.1255 9.87214 13.323 10.3491 13.6746 10.7007C14.0263 11.0523 14.5032 11.2499 15.0005 11.2499Z" fill="#5B4F46"/>
</svg>
