<svg width="30" height="30" viewBox="0 0 30 30" fill="none" xmlns="http://www.w3.org/2000/svg">
<path fill-rule="evenodd" clip-rule="evenodd" d="M14.2579 3.95986C14.4803 3.82204 14.7368 3.74902 14.9985 3.74902C15.2602 3.74902 15.5167 3.82204 15.7391 3.95986L25.5829 10.0536C25.8785 10.2359 26.0962 10.5212 26.194 10.8545C26.2918 11.1877 26.2628 11.5454 26.1127 11.8586C25.9625 12.1718 25.7017 12.4183 25.3806 12.5506C25.0595 12.683 24.7008 12.6919 24.3735 12.5755V23.4374H24.8423C25.2152 23.4374 25.5729 23.5855 25.8366 23.8492C26.1003 24.113 26.2485 24.4706 26.2485 24.8436C26.2485 25.2166 26.1003 25.5743 25.8366 25.838C25.5729 26.1017 25.2152 26.2499 24.8423 26.2499H5.15476C4.7818 26.2499 4.42411 26.1017 4.16039 25.838C3.89667 25.5743 3.74851 25.2166 3.74851 24.8436C3.74851 24.4706 3.89667 24.113 4.16039 23.8492C4.42411 23.5855 4.7818 23.4374 5.15476 23.4374H5.62351V12.5755C5.29626 12.6919 4.93753 12.683 4.61642 12.5506C4.29531 12.4183 4.03454 12.1718 3.88436 11.8586C3.73417 11.5454 3.7052 11.1877 3.80302 10.8545C3.90083 10.5212 4.11852 10.2359 4.41413 10.0536L14.2579 3.95986ZM8.43601 16.4061C8.43601 16.0331 8.58417 15.6755 8.84789 15.4117C9.11161 15.148 9.4693 14.9999 9.84226 14.9999C10.2152 14.9999 10.5729 15.148 10.8366 15.4117C11.1004 15.6755 11.2485 16.0331 11.2485 16.4061V22.0311C11.2485 22.4041 11.1004 22.7618 10.8366 23.0255C10.5729 23.2892 10.2152 23.4374 9.84226 23.4374C9.4693 23.4374 9.11161 23.2892 8.84789 23.0255C8.58417 22.7618 8.43601 22.4041 8.43601 22.0311V16.4061ZM14.9985 14.9999C14.6255 14.9999 14.2679 15.148 14.0041 15.4117C13.7404 15.6755 13.5923 16.0331 13.5923 16.4061V22.0311C13.5923 22.4041 13.7404 22.7618 14.0041 23.0255C14.2679 23.2892 14.6255 23.4374 14.9985 23.4374C15.3715 23.4374 15.7292 23.2892 15.9929 23.0255C16.2566 22.7618 16.4048 22.4041 16.4048 22.0311V16.4061C16.4048 16.0331 16.2566 15.6755 15.9929 15.4117C15.7292 15.148 15.3715 14.9999 14.9985 14.9999ZM18.7485 16.4061C18.7485 16.0331 18.8967 15.6755 19.1604 15.4117C19.4241 15.148 19.7818 14.9999 20.1548 14.9999C20.5277 14.9999 20.8854 15.148 21.1491 15.4117C21.4128 15.6755 21.561 16.0331 21.561 16.4061V22.0311C21.561 22.4041 21.4128 22.7618 21.1491 23.0255C20.8854 23.2892 20.5277 23.4374 20.1548 23.4374C19.7818 23.4374 19.4241 23.2892 19.1604 23.0255C18.8967 22.7618 18.7485 22.4041 18.7485 22.0311V16.4061ZM14.9985 11.2499C15.4958 11.2499 15.9727 11.0523 16.3243 10.7007C16.676 10.3491 16.8735 9.87214 16.8735 9.37486C16.8735 8.87758 16.676 8.40067 16.3243 8.04903C15.9727 7.6974 15.4958 7.49986 14.9985 7.49986C14.5012 7.49986 14.0243 7.6974 13.6727 8.04903C13.3211 8.40067 13.1235 8.87758 13.1235 9.37486C13.1235 9.87214 13.3211 10.3491 13.6727 10.7007C14.0243 11.0523 14.5012 11.2499 14.9985 11.2499Z" fill="white"/>
</svg>
