<svg width="141" height="38" viewBox="0 0 141 38" fill="none" xmlns="http://www.w3.org/2000/svg">
<path d="M30.6755 10.3242H35.2165L40.1237 22.3115H40.319L45.2263 10.3242H49.7673V28H46.2028V16.4277H46.0563L41.4421 27.9268H39.0007L34.3864 16.3789H34.2399V28H30.6755V10.3242ZM58.2034 28.2686C54.1507 28.2686 51.6604 25.6318 51.6604 21.4326C51.6604 17.3311 54.1751 14.5723 58.0569 14.5723C61.5481 14.5723 64.2825 16.7695 64.2825 21.2861V22.3115H55.2249C55.2249 24.3135 56.4212 25.5586 58.2767 25.5586C59.4974 25.5586 60.3763 25.0215 60.7425 24.2158H64.1849C63.6722 26.6572 61.4749 28.2686 58.2034 28.2686ZM55.2249 20.041H60.8645C60.8645 18.4297 59.7415 17.2822 58.1302 17.2822C56.47 17.2822 55.2859 18.5151 55.2249 20.041ZM66.1513 10.3242H70.6923L75.5995 22.3115H75.7948L80.702 10.3242H85.2431V28H81.6786V16.4277H81.5321L76.9179 27.9268H74.4765L69.8622 16.3789H69.7157V28H66.1513V10.3242ZM103.933 19.1621C103.933 24.9238 100.344 28.2441 95.6812 28.2441C90.9692 28.2441 87.4048 24.8994 87.4048 19.1621C87.4048 13.4004 90.9692 10.0801 95.6812 10.0801C100.344 10.0801 103.933 13.4004 103.933 19.1621ZM100.198 19.1621C100.198 15.3779 98.4155 13.3271 95.6812 13.3271C92.9468 13.3271 91.1401 15.3779 91.1401 19.1621C91.1401 22.9463 92.9468 24.9971 95.6812 24.9971C98.4155 24.9971 100.198 22.9463 100.198 19.1621ZM109.757 10.3242V28H106.095V10.3242H109.757ZM112.26 28V10.3242H119.194C123.222 10.3242 125.517 12.5947 125.517 16.0859C125.517 18.5029 124.406 20.2607 122.392 21.1152L126.152 28H122.099L118.73 21.7256H115.923V28H112.26ZM115.923 18.7471H118.51C120.683 18.7471 121.733 17.8438 121.733 16.0859C121.733 14.3037 120.683 13.3271 118.51 13.3271H115.923V18.7471ZM127.581 28V10.3242H139.447V13.3516H131.243V17.6484H138.836V20.6758H131.243V24.9727H139.471V28H127.581Z" fill="#5B4F46"/>
<path d="M55 11.5H60.2111" stroke="#5B4F46" stroke-width="2"/>
<g clip-path="url(#clip0_1201_842)">
<path fill-rule="evenodd" clip-rule="evenodd" d="M13.461 9.99252C13.7026 8.88509 15.2796 8.8783 15.5334 9.98302L15.5442 10.0346L15.5673 10.1323C15.7016 10.7052 16.0015 11.2259 16.4296 11.6297C16.8577 12.0334 17.3951 12.3023 17.9749 12.4028C19.1312 12.605 19.1312 14.2648 17.9749 14.4657C17.3916 14.5666 16.8513 14.8378 16.4219 15.2453C15.9925 15.6527 15.6933 16.178 15.5619 16.7552L15.5334 16.8854C15.2809 17.9915 13.7026 17.9847 13.461 16.8759L13.4352 16.7647C13.3081 16.1862 13.0119 15.6586 12.5841 15.249C12.1564 14.8394 11.6165 14.5663 11.0331 14.4643C9.87952 14.2634 9.87952 12.605 11.0331 12.4055C11.6148 12.3041 12.1534 12.0324 12.5807 11.6249C13.0081 11.2174 13.305 10.6923 13.4339 10.116L13.4515 10.0346L13.461 9.99252ZM1.49916 9.23252C1.32492 9.23234 1.15236 9.2665 0.991334 9.33306C0.830308 9.39961 0.683979 9.49725 0.560711 9.62039C0.437443 9.74353 0.339655 9.88976 0.272936 10.0507C0.206217 10.2117 0.171876 10.3842 0.171876 10.5584V16.1933C0.171876 16.9262 0.766304 17.5192 1.49916 17.5192H7.13538C7.86823 17.5192 8.46131 16.9262 8.46131 16.1933V10.5584C8.46148 10.3842 8.42732 10.2116 8.36076 10.0506C8.29421 9.88959 8.19657 9.74326 8.07343 9.62C7.95029 9.49673 7.80406 9.39894 7.6431 9.33222C7.48214 9.2655 7.30961 9.23116 7.13538 9.23116L1.49916 9.23252ZM0.171876 20.8632C0.171876 20.1304 0.766304 19.5373 1.49916 19.5373H7.13538C7.86823 19.5373 8.46131 20.1304 8.46131 20.8632V26.4994C8.46131 27.2323 7.86823 27.8267 7.13538 27.8267H1.49916C1.32481 27.8269 1.15213 27.7927 0.99102 27.7261C0.829906 27.6594 0.683516 27.5617 0.56023 27.4384C0.436945 27.3151 0.339185 27.1687 0.272546 27.0076C0.205907 26.8465 0.171697 26.6738 0.171876 26.4994V20.8632ZM10.4794 20.8632C10.4794 20.1304 11.0724 19.5373 11.8053 19.5373H17.4415C18.1744 19.5373 18.7688 20.1304 18.7688 20.8632V26.4994C18.7688 27.2323 18.1744 27.8267 17.4415 27.8267H11.8067C11.6324 27.8267 11.4599 27.7924 11.2989 27.7257C11.138 27.659 10.9918 27.5612 10.8686 27.4379C10.7455 27.3146 10.6478 27.1683 10.5813 27.0073C10.5147 26.8462 10.4806 26.6737 10.4807 26.4994L10.4794 20.8632Z" fill="#5B4F46"/>
</g>
<defs>
<clipPath id="clip0_1201_842">
<rect width="19" height="19" fill="white" transform="translate(0 9)"/>
</clipPath>
</defs>
</svg>
