<svg width="144" height="38" viewBox="0 0 144 38" fill="none" xmlns="http://www.w3.org/2000/svg">
<path d="M33.6755 10.3242H38.2165L43.1237 22.3115H43.319L48.2263 10.3242H52.7673V28H49.2028V16.4277H49.0563L44.4421 27.9268H42.0007L37.3864 16.3789H37.2399V28H33.6755V10.3242ZM61.2034 28.2686C57.1507 28.2686 54.6604 25.6318 54.6604 21.4326C54.6604 17.3311 57.1751 14.5723 61.0569 14.5723C64.5481 14.5723 67.2825 16.7695 67.2825 21.2861V22.3115H58.2249C58.2249 24.3135 59.4212 25.5586 61.2767 25.5586C62.4974 25.5586 63.3763 25.0215 63.7425 24.2158H67.1849C66.6722 26.6572 64.4749 28.2686 61.2034 28.2686ZM58.2249 20.041H63.8645C63.8645 18.4297 62.7415 17.2822 61.1302 17.2822C59.47 17.2822 58.2859 18.5151 58.2249 20.041ZM69.1513 10.3242H73.6923L78.5995 22.3115H78.7948L83.702 10.3242H88.2431V28H84.6786V16.4277H84.5321L79.9179 27.9268H77.4765L72.8622 16.3789H72.7157V28H69.1513V10.3242ZM106.933 19.1621C106.933 24.9238 103.344 28.2441 98.6812 28.2441C93.9692 28.2441 90.4048 24.8994 90.4048 19.1621C90.4048 13.4004 93.9692 10.0801 98.6812 10.0801C103.344 10.0801 106.933 13.4004 106.933 19.1621ZM103.198 19.1621C103.198 15.3779 101.416 13.3271 98.6812 13.3271C95.9468 13.3271 94.1401 15.3779 94.1401 19.1621C94.1401 22.9463 95.9468 24.9971 98.6812 24.9971C101.416 24.9971 103.198 22.9463 103.198 19.1621ZM112.757 10.3242V28H109.095V10.3242H112.757ZM115.26 28V10.3242H122.194C126.222 10.3242 128.517 12.5947 128.517 16.0859C128.517 18.5029 127.406 20.2607 125.392 21.1152L129.152 28H125.099L121.73 21.7256H118.923V28H115.26ZM118.923 18.7471H121.51C123.683 18.7471 124.733 17.8438 124.733 16.0859C124.733 14.3037 123.683 13.3271 121.51 13.3271H118.923V18.7471ZM130.581 28V10.3242H142.447V13.3516H134.243V17.6484H141.836V20.6758H134.243V24.9727H142.471V28H130.581Z" fill="#5B4F46"/>
<line x1="57" y1="10.5" x2="64.2111" y2="10.5" stroke="#5B4F46" stroke-width="3"/>
<g clip-path="url(#clip0_818_729)">
<path fill-rule="evenodd" clip-rule="evenodd" d="M14.1702 10.0442C14.4245 8.87853 16.0845 8.87138 16.3516 10.0342L16.3631 10.0885L16.3874 10.1914C16.5288 10.7944 16.8444 11.3426 17.295 11.7675C17.7457 12.1925 18.3113 12.4755 18.9216 12.5814C20.1388 12.7942 20.1388 14.5414 18.9216 14.7528C18.3077 14.8591 17.7389 15.1446 17.2869 15.5734C16.835 16.0023 16.52 16.5553 16.3816 17.1628L16.3516 17.3C16.0859 18.4642 14.4245 18.4571 14.1702 17.29L14.1431 17.1728C14.0093 16.5639 13.6974 16.0086 13.2472 15.5774C12.7969 15.1462 12.2286 14.8587 11.6145 14.7514C10.4002 14.54 10.4002 12.7942 11.6145 12.5842C12.2268 12.4775 12.7938 12.1915 13.2436 11.7625C13.6934 11.3336 14.0059 10.7808 14.1416 10.1742L14.1602 10.0885L14.1702 10.0442ZM1.57878 9.24424C1.39538 9.24405 1.21373 9.28002 1.04423 9.35007C0.874728 9.42013 0.720697 9.52291 0.590942 9.65253C0.461186 9.78215 0.358251 9.93608 0.28802 10.1055C0.21779 10.2749 0.181641 10.4565 0.181641 10.64V16.5714C0.181641 17.3428 0.807356 17.9671 1.57878 17.9671H7.51164C8.28307 17.9671 8.90736 17.3428 8.90736 16.5714V10.64C8.90755 10.4565 8.87158 10.2749 8.80152 10.1054C8.73147 9.9359 8.62869 9.78187 8.49907 9.65211C8.36944 9.52236 8.21552 9.41942 8.04609 9.34919C7.87666 9.27896 7.69505 9.24281 7.51164 9.24281L1.57878 9.24424ZM0.181641 21.4871C0.181641 20.7157 0.807356 20.0914 1.57878 20.0914H7.51164C8.28307 20.0914 8.90736 20.7157 8.90736 21.4871V27.42C8.90736 28.1914 8.28307 28.8171 7.51164 28.8171H1.57878C1.39526 28.8173 1.21349 28.7813 1.0439 28.7111C0.874304 28.641 0.72021 28.5381 0.590436 28.4083C0.460662 28.2785 0.357756 28.1244 0.28761 27.9548C0.217463 27.7852 0.181453 27.6035 0.181641 27.42V21.4871ZM11.0316 21.4871C11.0316 20.7157 11.6559 20.0914 12.4274 20.0914H18.3602C19.1316 20.0914 19.7574 20.7157 19.7574 21.4871V27.42C19.7574 28.1914 19.1316 28.8171 18.3602 28.8171H12.4288C12.2454 28.8171 12.0638 28.781 11.8943 28.7107C11.7249 28.6405 11.571 28.5376 11.4414 28.4078C11.3117 28.278 11.209 28.124 11.1389 27.9545C11.0688 27.785 11.0329 27.6034 11.0331 27.42L11.0316 21.4871Z" fill="#5B4F46"/>
</g>
<defs>
<clipPath id="clip0_818_729">
<rect width="20" height="20" fill="white" transform="translate(0 9)"/>
</clipPath>
</defs>
</svg>
